<?xml version="1.0" standalone="no"?>
<!DOCTYPE svg PUBLIC "-//W3C//DTD SVG 20010904//EN"
 "http://www.w3.org/TR/2001/REC-SVG-20010904/DTD/svg10.dtd">
<svg version="1.0" xmlns="http://www.w3.org/2000/svg"
 width="236.000000pt" height="236.000000pt" viewBox="0 0 236.000000 236.000000"
 preserveAspectRatio="xMidYMid meet">
<metadata>
Created by potrace 1.14, written by Peter Selinger 2001-2017
</metadata>
<g transform="translate(0.000000,236.000000) scale(0.100000,-0.100000)"
fill="#000000" stroke="none">
<path d="M1654 2169 c-180 -17 -352 -169 -393 -350 -63 -273 155 -550 434
-550 95 0 154 14 224 54 222 126 302 401 179 616 -93 162 -258 247 -444 230z
m190 -142 c66 -31 126 -89 163 -159 25 -47 28 -64 28 -148 0 -112 -21 -164
-95 -238 -193 -194 -526 -85 -569 186 -26 167 80 333 244 378 63 18 168 9 229
-19z"/>
<path d="M300 2074 l-53 -55 146 -147 146 -147 -145 -144 -145 -145 56 -55 55
-56 144 144 c130 130 146 143 162 130 9 -7 74 -71 144 -141 70 -71 129 -128
133 -128 7 0 107 99 107 106 0 3 -63 68 -140 145 -77 77 -140 143 -140 147 0
4 64 71 142 149 l143 143 -55 55 -55 55 -146 -146 -147 -147 -148 147 c-81 80
-148 146 -149 146 0 0 -25 -25 -55 -56z"/>
<path d="M549 1106 c-2 -3 -17 -7 -33 -10 -95 -17 -237 -132 -285 -229 -72
-147 -67 -304 14 -437 131 -216 402 -286 617 -159 66 39 104 75 149 143 118
177 94 410 -58 562 -92 92 -195 134 -328 134 -40 0 -74 -2 -76 -4z m214 -134
c65 -29 113 -69 151 -127 115 -176 49 -403 -144 -494 -45 -21 -69 -26 -136
-25 -71 0 -90 4 -147 32 -103 51 -168 138 -185 246 -15 92 4 173 58 251 38 56
84 91 157 121 72 29 176 27 246 -4z"/>
<path d="M1370 985 l-55 -55 147 -148 147 -147 -145 -145 -144 -144 55 -56 55
-55 143 143 c78 78 145 142 148 142 4 0 70 -63 147 -140 77 -77 143 -140 146
-140 8 0 106 98 106 106 0 4 -63 70 -140 146 -77 77 -140 142 -140 146 0 4 64
71 142 149 l143 143 -55 55 -55 55 -146 -146 -147 -147 -148 147 c-81 80 -148
146 -148 146 -1 0 -26 -25 -56 -55z"/>
</g>
</svg>
